<svg width="35" height="40" viewBox="0 0 35 40" fill="none" xmlns="http://www.w3.org/2000/svg">
<path d="M15.7431 0H23.0504V30.0184C19.3075 30.653 16.5521 30.9027 13.5707 30.9027C4.64583 30.8943 0 27.3206 0 20.4571C0 13.844 4.92796 9.55217 12.5644 9.55217C13.7494 9.55217 14.6522 9.63576 15.7431 9.88617V0ZM15.9992 15.2958C15.1433 15.0453 14.4381 14.9618 13.5352 14.9618C9.83931 14.9618 7.70451 16.9824 7.70451 20.5236C7.70451 23.9713 9.74536 25.875 13.4883 25.875C14.297 25.875 14.9553 25.8341 15.9992 25.7089V15.2958Z" fill="url(#paint0_linear_391_32)"/>
<path d="M35 10.3581V25.3879C35 30.5639 34.5674 33.053 33.2977 35.199C32.1127 37.2621 30.5516 38.5631 27.3259 40L20.5453 37.1361C23.771 35.7925 25.3321 34.6052 26.3291 32.7933C27.3728 30.9405 27.702 28.7945 27.702 23.1501V10.3582L35 10.3581ZM26.9656 0H34.2729V6.65482H26.9656V0Z" fill="url(#paint1_linear_391_32)"/>
<defs>
<linearGradient id="paint0_linear_391_32" x1="11.5252" y1="0" x2="11.5252" y2="30.9027" gradientUnits="userSpaceOnUse">
<stop stop-color="#A48BD1"/>
<stop offset="1"/>
</linearGradient>
<linearGradient id="paint1_linear_391_32" x1="27.7726" y1="0" x2="27.7726" y2="40" gradientUnits="userSpaceOnUse">
<stop stop-color="#A48BD1"/>
<stop offset="1"/>
</linearGradient>
</defs>
</svg>
