<svg width="205" height="266" viewBox="0 0 205 266" fill="none" xmlns="http://www.w3.org/2000/svg">
<path fill-rule="evenodd" clip-rule="evenodd" d="M0.596938 133.614C-0.321063 131.982 -0.100063 130.809 0.715938 129.16C34.546 66.3104 85.597 27.7544 149.925 0.197343C152.118 -0.737659 155.348 1.82934 154.566 4.12435C144.978 32.0214 138.212 59.1874 134.285 88.3765C130.715 115.27 129.729 143.083 133.35 172.136C137.192 205.099 145.063 232.452 154.549 261.93C155.603 265.211 152.254 266.707 149.687 265.449C82.707 232.469 31.945 189.357 0.596938 133.614Z" fill="#EE3167"/>
<path fill-rule="evenodd" clip-rule="evenodd" d="M200.126 191.618C163.1 180.007 129.967 160.321 100.608 134.311C98.6531 132.577 98.8741 130.146 100.642 128.463C129.797 100.582 162.879 78.7035 199.463 63.2334C202.676 61.8564 205.328 64.5254 204.376 68.1974C194.006 107.96 191.728 147.248 204.512 186.637C205.566 189.918 202.914 192.485 200.126 191.618Z" fill="#0098DA" fill-opacity="0.639216"/>
<path fill-rule="evenodd" clip-rule="evenodd" d="M200.126 191.618C175.748 183.968 153.053 172.816 132.024 158.689C130.562 136.164 130.443 126.151 132.806 101.313C153.478 85.9965 175.731 73.2634 199.463 63.2334C202.676 61.8564 205.328 64.5254 204.376 68.1974C194.006 107.96 191.728 147.248 204.512 186.637C205.566 189.918 202.914 192.485 200.126 191.618Z" fill="#5ABAE7"/>
</svg>
