<svg id="visual" viewBox="0 0 900 600" width="900" height="600" xmlns="http://www.w3.org/2000/svg" xmlns:xlink="http://www.w3.org/1999/xlink" version="1.1"><rect x="0" y="0" width="900" height="600" fill="#fefefe"></rect><path d="M558 600L397 600L397 514L542 514L542 429L536 429L536 343L373 343L373 257L455 257L455 171L519 171L519 86L383 86L383 0L900 0L900 86L900 86L900 171L900 171L900 257L900 257L900 343L900 343L900 429L900 429L900 514L900 514L900 600L900 600Z" fill="#a48bd1"></path><path d="M650 600L586 600L586 514L692 514L692 429L528 429L528 343L521 343L521 257L535 257L535 171L680 171L680 86L635 86L635 0L900 0L900 86L900 86L900 171L900 171L900 257L900 257L900 343L900 343L900 429L900 429L900 514L900 514L900 600L900 600Z" fill="#523e7d"></path><path d="M818 600L721 600L721 514L709 514L709 429L743 429L743 343L808 343L808 257L761 257L761 171L780 171L780 86L730 86L730 0L900 0L900 86L900 86L900 171L900 171L900 257L900 257L900 343L900 343L900 429L900 429L900 514L900 514L900 600L900 600Z" fill="#000000"></path></svg>