<svg width="130" height="65" viewBox="0 0 130 65" fill="none" xmlns="http://www.w3.org/2000/svg">
<path d="M11.2327 38.0858H19.342V42.793H5.04202V17.7591H11.2327V38.0858ZM21.0639 32.808C21.0639 30.7635 21.45 28.9684 22.2224 27.4232C23.0189 25.8779 24.0928 24.6891 25.4445 23.8571C26.796 23.0251 28.3045 22.609 29.9698 22.609C31.3937 22.609 32.6366 22.8943 33.6986 23.4648C34.7847 24.0354 35.6174 24.7843 36.1966 25.7115V22.8943H42.3872V42.793H36.1966V39.9758C35.5932 40.903 34.7485 41.6519 33.6624 42.2224C32.6004 42.793 31.3575 43.0783 29.9336 43.0783C28.2923 43.0783 26.796 42.6622 25.4445 41.8302C24.0928 40.9743 23.0189 39.7737 22.2224 38.2284C21.45 36.6593 21.0639 34.8525 21.0639 32.808ZM36.1966 32.8436C36.1966 31.322 35.7622 30.1216 34.8933 29.2419C34.0485 28.3622 33.0108 27.9224 31.7799 27.9224C30.549 27.9224 29.4991 28.3622 28.6303 29.2419C27.7854 30.0977 27.3632 31.2864 27.3632 32.808C27.3632 34.3296 27.7854 35.542 28.6303 36.4454C29.4991 37.3251 30.549 37.7648 31.7799 37.7648C33.0108 37.7648 34.0485 37.3251 34.8933 36.4454C35.7622 35.5657 36.1966 34.3652 36.1966 32.8436ZM53.0565 26.2107C53.7805 25.1171 54.6856 24.2612 55.7716 23.6431C56.8577 23.0012 58.0644 22.6803 59.3919 22.6803V29.1349H57.6904C56.1457 29.1349 54.9872 29.4677 54.2149 30.1334C53.4427 30.7753 53.0565 31.9165 53.0565 33.5569V42.793H46.8658V22.8943H53.0565V26.2107Z" fill="black"/>
<path d="M71.5033 52.6062C69.645 52.6062 67.9796 52.3091 66.5073 51.7147C65.0351 51.1203 63.8526 50.2408 62.9595 49.0758C62.0906 47.9108 61.632 46.5082 61.5838 44.8678H68.1727C68.2693 45.795 68.5951 46.5082 69.1501 47.0075C69.7052 47.4829 70.4292 47.7207 71.3223 47.7207C72.2394 47.7207 72.9634 47.5186 73.4944 47.1145C74.0255 46.6865 74.2909 46.1041 74.2909 45.3671C74.2909 44.749 74.0737 44.2378 73.6392 43.8337C73.229 43.4296 72.71 43.0966 72.0825 42.8352C71.4791 42.5737 70.6102 42.2764 69.476 41.9437C67.8348 41.4444 66.4953 40.9451 65.4575 40.4459C64.4196 39.9466 63.5267 39.2096 62.7785 38.2349C62.0302 37.2602 61.6562 35.9883 61.6562 34.4192C61.6562 32.0894 62.5131 30.2707 64.2266 28.9631C65.9401 27.6318 68.1727 26.9661 70.9241 26.9661C73.7237 26.9661 75.9804 27.6318 77.6939 28.9631C79.4075 30.2707 80.3247 32.1013 80.4453 34.4549H73.7479C73.6996 33.6465 73.3978 33.0166 72.8428 32.5648C72.2877 32.0894 71.5757 31.8516 70.7068 31.8516C69.9586 31.8516 69.3553 32.0538 68.8967 32.4579C68.4381 32.8383 68.2089 33.3969 68.2089 34.1339C68.2089 34.9423 68.5951 35.5722 69.3673 36.024C70.1396 36.4757 71.3465 36.963 72.9876 37.486C74.6287 38.0328 75.9562 38.5559 76.9699 39.0551C78.0077 39.5544 78.9006 40.2794 79.6489 41.2304C80.3971 42.1814 80.7711 43.4057 80.7711 44.9035C80.7711 46.3299 80.3971 47.6256 79.6489 48.7905C78.9248 49.9555 77.8629 50.8827 76.463 51.5721C75.0632 52.2615 73.41 52.6062 71.5033 52.6062ZM93.7764 52.6419C91.7973 52.6419 90.0113 52.2258 88.4184 51.3938C86.8496 50.5617 85.6066 49.3729 84.6896 47.8277C83.7965 46.2824 83.3501 44.4756 83.3501 42.4072C83.3501 40.3627 83.8085 38.5677 84.7258 37.0225C85.6429 35.4534 86.8979 34.2527 88.4908 33.4207C90.0838 32.5887 91.8697 32.1726 93.8488 32.1726C95.8278 32.1726 97.6139 32.5887 99.2068 33.4207C100.8 34.2527 102.055 35.4534 102.972 37.0225C103.889 38.5677 104.348 40.3627 104.348 42.4072C104.348 44.4517 103.877 46.2586 102.936 47.8277C102.018 49.3729 100.751 50.5617 99.1344 51.3938C97.5415 52.2258 95.7554 52.6419 93.7764 52.6419ZM93.7764 47.3641C94.9589 47.3641 95.9606 46.9362 96.7812 46.0803C97.6259 45.2244 98.0483 44.0001 98.0483 42.4072C98.0483 40.8143 97.6379 39.59 96.8174 38.7342C96.021 37.8783 95.0313 37.4504 93.8488 37.4504C92.642 37.4504 91.6405 37.8783 90.844 38.7342C90.0475 39.5662 89.6493 40.7907 89.6493 42.4072C89.6493 44.0001 90.0354 45.2244 90.8078 46.0803C91.6043 46.9362 92.5937 47.3641 93.7764 47.3641ZM119.941 32.2439C122.306 32.2439 124.188 33.0046 125.588 34.5262C127.012 36.0239 127.724 38.0923 127.724 40.7312V52.3566H121.57V41.5514C121.57 40.2201 121.22 39.1859 120.52 38.4489C119.82 37.7118 118.879 37.3434 117.696 37.3434C116.513 37.3434 115.572 37.7118 114.872 38.4489C114.172 39.1859 113.822 40.2201 113.822 41.5514V52.3566H107.632V32.4579H113.822V35.0968C114.45 34.2171 115.295 33.5277 116.357 33.0284C117.418 32.5054 118.613 32.2439 119.941 32.2439Z" fill="url(#paint0_linear_15_3)"/>
<path d="M21.4421 9.12934C22.1056 9.82748 22.5496 10.5615 22.7742 11.3314C23.0047 12.0958 23.0089 12.8414 22.7867 13.5681C22.5761 14.2952 22.1555 14.9496 21.5247 15.5312C21.0143 16.002 20.4554 16.3508 19.8482 16.5777C19.2466 16.8105 18.6507 16.8771 18.0603 16.7778C17.4814 16.6786 16.9699 16.3954 16.5256 15.928C16.2277 15.6144 16.0433 15.2959 15.9726 14.9725C15.9076 14.655 15.9554 14.3556 16.1162 14.0741C15.7245 14.1244 15.3389 14.0804 14.9593 13.9419C14.5858 13.7979 14.2528 13.5721 13.9604 13.2644C13.5443 12.8266 13.3475 12.3586 13.3699 11.8605C13.4041 11.3627 13.6524 10.9006 14.1148 10.4741C14.5533 10.0697 15.0491 9.77905 15.6022 9.60204C16.1613 9.41951 16.707 9.37701 17.2393 9.47457C17.7717 9.57212 18.2234 9.81614 18.5944 10.2066C19.0667 10.7036 19.2071 11.207 19.0154 11.7169L19.5688 11.3564L20.7329 12.5811L18.1003 14.2761C17.9752 14.358 17.8707 14.4378 17.7866 14.5153C17.5224 14.7591 17.4998 14.9963 17.7192 15.227C17.989 15.511 18.3776 15.558 18.8846 15.3681C19.4031 15.1785 19.9027 14.8621 20.3832 14.419C21.074 13.782 21.4092 13.0675 21.3891 12.2756C21.3748 11.4896 20.9993 10.709 20.2626 9.93395C19.6328 9.27129 18.8971 8.81736 18.0554 8.57214C17.2192 8.33284 16.3728 8.31969 15.5158 8.5327C14.6647 8.74017 13.9029 9.15409 13.2302 9.77446C12.5034 10.4447 12.1356 11.1724 12.1268 11.9577C12.1236 12.7489 12.4791 13.5202 13.1932 14.2716C13.7499 14.8573 14.3557 15.2813 15.0105 15.5434L14.2562 16.6886C13.4469 16.3469 12.6992 15.8152 12.0131 15.0934C11.3721 14.4189 10.9391 13.7025 10.7142 12.944C10.4949 12.1914 10.4963 11.4518 10.7186 10.7251C10.9408 9.99831 11.3763 9.33585 12.025 8.73762C12.9319 7.90123 13.9514 7.35518 15.0835 7.09949C16.2215 6.83828 17.3464 6.88339 18.458 7.23486C19.5815 7.58668 20.576 8.21819 21.4421 9.12934ZM15.5409 12.7394C15.6984 12.9051 15.8956 13.0119 16.1327 13.0597C16.3754 13.1134 16.6201 13.1042 16.8671 13.0319C17.1256 12.96 17.354 12.8327 17.5521 12.6499C17.7564 12.4616 17.8681 12.253 17.8875 12.0243C17.9127 11.79 17.8327 11.5753 17.6471 11.38C17.3996 11.1197 17.0804 11.009 16.689 11.0479C16.2976 11.0868 15.9458 11.2503 15.6335 11.5383C15.4353 11.7211 15.3239 11.9181 15.2994 12.1295C15.2748 12.3409 15.3553 12.5442 15.5409 12.7394Z" fill="#0A2E22"/>
<defs>
<linearGradient id="paint0_linear_15_3" x1="103.835" y1="25.5299" x2="69.4855" y2="51.3118" gradientUnits="userSpaceOnUse">
<stop stop-color="#4976ED"/>
<stop offset="1" stop-color="#A48BD1"/>
</linearGradient>
</defs>
</svg>
