<svg width="35" height="40" viewBox="0 0 35 40" fill="none" xmlns="http://www.w3.org/2000/svg">
<g clip-path="url(#clip0_392_35)">
<path d="M0 34.8424C0 37.6912 2.0205 40 4.51292 40H30.4871C32.9798 40 35 37.6909 35 34.8424V5.15762C35 2.30883 32.9795 0 30.4871 0H4.51292C2.02023 0 0 2.30915 0 5.15762V34.8424Z" fill="url(#paint0_linear_392_35)"/>
<path d="M14.5137 17.6935V12.0288H18.8767C19.2922 12.0288 19.6929 12.0684 20.0787 12.1476C20.4645 12.2267 20.8058 12.368 21.1026 12.5716C21.3994 12.7751 21.6369 13.0577 21.815 13.4196C21.993 13.7814 22.0821 14.2449 22.0821 14.8103C22.0821 15.8279 21.815 16.5628 21.2807 17.0151C20.7465 17.4673 20.0639 17.6935 19.2328 17.6935H14.5137ZM9.85399 7.89062V32.1094H20.1232C21.073 32.1094 21.998 31.9737 22.8983 31.7023C23.7986 31.431 24.5999 31.0126 25.3023 30.4473C26.0048 29.882 26.5637 29.1527 26.9793 28.2595C27.3948 27.3662 27.6025 26.3091 27.6025 25.088C27.6025 23.5729 27.281 22.2783 26.6379 21.2042C25.9949 20.13 25.0204 19.3781 23.7145 18.9485C24.6642 18.4284 25.3815 17.7613 25.8663 16.9472C26.351 16.1331 26.5934 15.1156 26.5934 13.8944C26.5934 12.7638 26.4302 11.814 26.1037 11.0452C25.7772 10.2763 25.3172 9.66011 24.7236 9.19654C24.13 8.73296 23.4177 8.39942 22.5866 8.1959C21.7556 7.99238 20.8355 7.89062 19.8264 7.89062H9.85399ZM14.5137 27.9712V21.3229H19.589C20.5981 21.3229 21.4093 21.5886 22.0227 22.12C22.6361 22.6514 22.9428 23.539 22.9428 24.7827C22.9428 25.4159 22.8488 25.936 22.6608 26.343C22.4729 26.75 22.2206 27.0723 21.904 27.3097C21.5874 27.5472 21.2214 27.7168 20.8059 27.8185C20.3903 27.9203 19.955 27.9712 19.4999 27.9712H14.5137Z" fill="white"/>
</g>
<defs>
<linearGradient id="paint0_linear_392_35" x1="17.5" y1="0" x2="17.5" y2="40" gradientUnits="userSpaceOnUse">
<stop stop-color="#A48BD1"/>
<stop offset="1"/>
</linearGradient>
<clipPath id="clip0_392_35">
<rect width="35" height="40" fill="white"/>
</clipPath>
</defs>
</svg>
