<svg width="35" height="40" viewBox="0 0 35 40" fill="none" xmlns="http://www.w3.org/2000/svg">
<path id="Vector" d="M0 0V40H35V0H0ZM18.75 31.0714C18.75 34.9652 16.7375 36.8634 13.8242 36.8634C11.193 36.8634 9.66563 35.3063 8.89062 33.4268L11.5688 31.5741C12.0852 32.6214 12.4773 33.5071 13.6047 33.5071C14.5422 33.5071 15.3125 33.0241 15.3125 31.1446V18.5714H18.75V31.0714ZM26.5117 36.7741C23.4578 36.7741 21.4844 35.1991 20.5211 33.0241L23.2031 31.25C23.9062 32.5661 24.8242 33.4429 26.4453 33.4429C27.8078 33.4429 28.5992 32.7536 28.5992 31.6795C28.5992 30.3911 27.7844 29.9348 26.2805 29.1795L25.4586 28.7759C23.0852 27.6223 21.5117 26.1723 21.5117 23.1107C21.5117 20.292 23.3906 18.233 26.3273 18.233C28.4187 18.233 29.9211 18.9759 31.0031 21.1509L28.4375 23.0357C27.8734 21.8813 27.2656 21.4286 26.3234 21.4286C25.3602 21.4286 24.7492 22.1268 24.7492 23.0357C24.7492 24.1634 25.3602 24.6196 26.7695 25.3179L27.5914 25.7205C30.3875 27.0902 31.9617 28.4884 31.9617 31.6277C31.9625 35.0116 29.6367 36.7741 26.5117 36.7741Z" fill="url(#paint0_linear_56_9)"/>
<defs>
<linearGradient id="paint0_linear_56_9" x1="17.5" y1="0" x2="17.5" y2="40" gradientUnits="userSpaceOnUse">
<stop stop-color="#A48BD1"/>
<stop offset="1"/>
</linearGradient>
</defs>
</svg>
